<?xml version="1.0" encoding="UTF-8"?>
<svg width="159px" height="30px" viewBox="0 0 159 30" version="1.1" xmlns="http://www.w3.org/2000/svg" xmlns:xlink="http://www.w3.org/1999/xlink">
    <title>Logo Copy</title>
    <defs>
        <path d="M24,0 L30,6 L30,24 L24,30 L6,30 L0,24 L0,6 L6,0 L24,0 Z M18,12 L12,12 L12,18 L18,18 L18,12 Z" id="path-1"></path>
        <linearGradient x1="0%" y1="50%" x2="100%" y2="50%" id="linearGradient-3">
            <stop stop-color="#5FB868" offset="0%"></stop>
            <stop stop-color="#5DD988" offset="100%"></stop>
        </linearGradient>
        <polygon id="path-4" points="-3 9 21 9 21 15 21 27 15 27 15.0090124 15 -3 15"></polygon>
        <linearGradient x1="0%" y1="50%" x2="100%" y2="50%" id="linearGradient-5">
            <stop stop-color="#47A14D" offset="0%"></stop>
            <stop stop-color="#54C371" offset="100%"></stop>
        </linearGradient>
        <linearGradient x1="0%" y1="50%" x2="100%" y2="50%" id="linearGradient-6">
            <stop stop-color="#5AD589" offset="0%"></stop>
            <stop stop-color="#5DDC8C" offset="100%"></stop>
        </linearGradient>
        <linearGradient x1="0%" y1="50%" x2="100%" y2="50%" id="linearGradient-7">
            <stop stop-color="#58A75F" offset="0%"></stop>
            <stop stop-color="#6CDC93" offset="100%"></stop>
        </linearGradient>
    </defs>
    <g id="Page-1" stroke="none" stroke-width="1" fill="none" fill-rule="evenodd">
        <g id="Artboard">
            <g id="Logo-Copy">
                <g id="Group">
                    <mask id="mask-2" fill="white">
                        <use xlink:href="#path-1"></use>
                    </mask>
                    <use id="Mask" fill="#D8D8D8" xlink:href="#path-1"></use>
                    <g mask="url(#mask-2)">
                        <g id="Rectangle-Copy-3" transform="translate(9.000000, 18.000000) rotate(270.000000) translate(-9.000000, -18.000000) ">
                            <use fill="#BD10E0" xlink:href="#path-4"></use>
                            <use fill="url(#linearGradient-3)" xlink:href="#path-4"></use>
                        </g>
                        <polygon id="Rectangle-Copy-2" fill="url(#linearGradient-5)" transform="translate(18.000000, 21.000000) rotate(180.000000) translate(-18.000000, -21.000000) " points="6 12 30 12 30 18 30 30 24 30 24.0090124 18 6 18"></polygon>
                        <polygon id="Rectangle-Copy" fill="url(#linearGradient-6)" transform="translate(21.000000, 12.000000) rotate(90.000000) translate(-21.000000, -12.000000) " points="9 3 33 3 33 9 33 21 27 21 27.0090124 9 9 9"></polygon>
                        <polygon id="Mask" fill="url(#linearGradient-7)" points="0 0 24 0 24 6 24 18 18 18 18.0090124 6 0 6"></polygon>
                    </g>
                </g>
            </g>
            <path d="M43.4403553,24.5 C44.6717428,24.5 45.7600465,24.3132022 46.7052665,23.9396067 C47.6504865,23.5660112 48.4396151,23.0411985 49.0726523,22.3651685 C49.7056895,21.6891386 50.1826354,20.8752341 50.5034898,19.9234551 C50.8243443,18.971676 50.9847716,17.9087079 50.9847716,16.7345506 L50.9847716,16.7345506 L50.9847716,13.2654494 C50.9847716,12.1624532 50.8373519,11.1350655 50.5425127,10.1832865 C50.2476734,9.23150749 49.7880711,8.40870787 49.1637056,7.71488764 C48.5393401,7.02106742 47.7545474,6.47846442 46.8093274,6.08707865 C45.8641074,5.69569288 44.7411168,5.5 43.4403553,5.5 C42.0875635,5.5 40.9428934,5.71793071 40.0063452,6.15379213 C39.069797,6.58965356 38.3023477,7.16783708 37.7039975,7.8883427 C37.1056472,8.60884831 36.6720601,9.43609551 36.403236,10.3700843 C36.134412,11.304073 36,12.2691948 36,13.2654494 L36,13.2654494 L36,16.7345506 C36,17.784176 36.134412,18.7759831 36.403236,19.7099719 C36.6720601,20.6439607 37.1013113,21.4667603 37.6909898,22.1783708 C38.2806684,22.8899813 39.0481176,23.4548221 39.9933376,23.8728933 C40.9385575,24.2909644 42.0875635,24.5 43.4403553,24.5 Z M43.4403553,20.1769663 C43.0067682,20.1769663 42.6468909,20.1013577 42.3607234,19.9501404 C42.0745558,19.7989232 41.8490905,19.5943352 41.6843274,19.3363764 C41.5195643,19.0784176 41.4024958,18.7804307 41.3331218,18.4424157 C41.2637479,18.1044007 41.2290609,17.7485955 41.2290609,17.375 L41.2290609,17.375 L41.2290609,12.6516854 C41.2290609,12.2958801 41.2680838,11.94897 41.3461294,11.6109551 C41.4241751,11.2729401 41.5455795,10.9705056 41.7103426,10.7036517 C41.8751058,10.4367978 42.1005711,10.2233146 42.3867386,10.0632022 C42.6729061,9.90308989 43.0241117,9.82303371 43.4403553,9.82303371 C44.2901861,9.82303371 44.8885364,10.1032303 45.2354061,10.6636236 C45.5822758,11.2240169 45.7557107,11.8867041 45.7557107,12.6516854 L45.7557107,12.6516854 L45.7557107,17.375 C45.7557107,18.2111423 45.5779399,18.8871723 45.2223985,19.4030899 C44.866857,19.9190075 44.2728426,20.1769663 43.4403553,20.1769663 Z M59.2055838,24.3398876 L59.2055838,17.6685393 L62.0672589,17.6685393 C63.0038071,17.6685393 63.8796531,17.5217697 64.694797,17.2282303 C65.5099408,16.934691 66.2166878,16.525515 66.8150381,16.0007022 C67.4133883,15.4758895 67.8859983,14.8576779 68.232868,14.1460674 C68.5797377,13.4344569 68.7531726,12.6516854 68.7531726,11.7977528 C68.7531726,10.8726592 68.5927453,10.0365169 68.2718909,9.28932584 C67.9510364,8.54213483 67.5001058,7.91058052 66.919099,7.39466292 C66.3380922,6.87874532 65.6313452,6.47846442 64.7988579,6.19382022 C63.9663706,5.90917603 63.0298223,5.76685393 61.9892132,5.76685393 L61.9892132,5.76685393 L53.9765228,5.76685393 L53.9765228,24.3398876 L59.2055838,24.3398876 Z M61.625,13.505618 L59.2055838,13.505618 L59.2055838,9.95646067 L61.5209391,9.95646067 C62.0932741,9.95646067 62.5832276,10.0854401 62.9907995,10.3433989 C63.3983714,10.6013577 63.6021574,11.0772472 63.6021574,11.7710674 C63.6021574,12.0912921 63.5414552,12.3581461 63.4200508,12.5716292 C63.2986464,12.7851124 63.1468909,12.963015 62.9647843,13.1053371 C62.7826777,13.2476592 62.57022,13.3499532 62.3274112,13.4122191 C62.0846024,13.474485 61.8504653,13.505618 61.625,13.505618 L61.625,13.505618 Z M80.0177665,24.3398876 L80.0177665,10.0898876 L84.8826142,10.0898876 L84.8826142,5.76685393 L69.9238579,5.76685393 L69.9238579,10.0898876 L74.7887056,10.0898876 L74.7887056,24.3398876 L80.0177665,24.3398876 Z M92.3489848,24.3398876 L92.3489848,5.76685393 L87.0939086,5.76685393 L87.0939086,24.3398876 L92.3489848,24.3398876 Z M100.751904,24.3398876 L100.751904,16.7078652 L100.829949,16.7078652 L102.07868,19.75 L102.963198,21.9648876 L106.995558,21.9648876 L107.854061,19.7766854 L109.128807,16.7879213 L109.232868,16.7879213 L109.232868,24.3398876 L114.227792,24.3398876 L114.227792,5.76685393 L109.206853,5.76685393 L106.917513,10.8370787 L104.992386,15.2401685 L104.836294,15.2401685 L102.703046,10.4634831 L100.595812,5.76685393 L95.7309645,5.76685393 L95.7309645,24.3398876 L100.751904,24.3398876 Z M122.864848,24.3398876 L122.864848,5.76685393 L117.609772,5.76685393 L117.609772,24.3398876 L122.864848,24.3398876 Z M131.371827,24.3398876 L131.371827,15.0533708 L131.475888,15.0533708 L134.077411,19.2162921 L137.433376,24.3398876 L141.986041,24.3398876 L141.986041,5.76685393 L136.861041,5.76685393 L136.861041,14.9466292 L136.730964,14.9466292 L134.181472,10.863764 L130.799492,5.76685393 L126.246827,5.76685393 L126.246827,24.3398876 L131.371827,24.3398876 Z M159,24.3398876 L159,20.0168539 L150.336929,20.0168539 L150.336929,16.9747191 L157.491117,16.9747191 L157.491117,12.6783708 L150.336929,12.6783708 L150.336929,10.0898876 L159,10.0898876 L159,5.76685393 L145.107868,5.76685393 L145.107868,24.3398876 L159,24.3398876 Z" id="OPTIMINE" fill="#5DDC8D" fill-rule="nonzero"></path>
        </g>
    </g>
</svg>