<?xml version="1.0" encoding="UTF-8"?>
<svg width="300px" height="50px" viewBox="0 0 300 54" xmlns="http://www.w3.org/2000/svg" xmlns:xlink="http://www.w3.org/1999/xlink" version="1.1">
 <g id="Group_263">
  <g id="Group_262">
   <path id="Path_16" d="M18.445 1.553 C22.038 -0.522 26.466 -0.522 30.06 1.553 33.885 3.763 38.875 6.643 42.701 8.853 46.294 10.928 48.508 14.762 48.509 18.912 L48.509 33.506 C48.509 37.654 46.296 41.489 42.702 43.564 38.876 45.775 33.886 48.655 30.06 50.865 26.467 52.94 22.039 52.94 18.445 50.865 14.62 48.658 9.633 45.777 5.807 43.565 2.213 41.49 -0 37.656 -0 33.506 L-0 18.913 C0 14.766 2.213 10.931 5.805 8.855 9.636 6.647 14.62 3.766 18.445 1.553 Z M32.466 28.945 C33.193 28.219 33.601 27.233 33.601 26.206 33.601 25.178 33.193 24.193 32.466 23.467 L26.991 17.992 C25.478 16.482 23.029 16.482 21.516 17.992 L16.039 23.467 C14.529 24.981 14.529 27.431 16.039 28.945 L21.516 34.42 C22.242 35.146 23.227 35.554 24.253 35.554 25.28 35.554 26.265 35.146 26.991 34.42 Z" fill="#55c595" fill-opacity="1" stroke="none"/>
   <g id="Group_261">
    <g id="Group_260">
     <g id="Group_256">
      <path id="Path_17" d="M30.006 1.526 C27.613 0.176 24.041 0.126 21.424 0.576 L38.405 16.306 C40.274 18.175 40.274 21.205 38.405 23.074 L33.031 28.234 C33.964 26.706 33.73 24.739 32.466 23.472 L26.991 17.997 C26.664 17.669 26.281 17.403 25.86 17.212 L20.904 12.044 C19.035 10.175 16.005 10.175 14.136 12.044 L-0.001 26.179 -0.001 18.913 C-0.001 14.766 2.212 10.931 5.804 8.855 9.631 6.647 14.619 3.766 18.444 1.554 22.037 -0.521 26.465 -0.521 30.059 1.554 Z" fill="#12eb90" fill-opacity="1" stroke="none"/>
     </g>
     <g id="Group_257">
      <path id="Path_18" d="M18.502 51.04 C20.895 52.39 24.467 52.44 27.085 51.99 L10.103 36.26 C8.234 34.391 8.234 31.361 10.103 29.492 L15.477 24.332 C14.543 25.859 14.777 27.827 16.042 29.094 L21.517 34.566 C21.844 34.894 22.227 35.16 22.648 35.351 L27.604 40.519 C29.473 42.388 32.503 42.388 34.372 40.519 L48.509 26.387 48.509 33.653 C48.509 37.8 46.296 41.635 42.703 43.711 38.876 45.919 33.889 48.8 30.063 51.012 26.469 53.087 22.042 53.087 18.448 51.012 Z" fill="#05ad66" fill-opacity="1" stroke="none"/>
     </g>
     <g id="Group_258">
      <path id="Path_19" d="M18.33 -2.295 C20.968 -2.749 27.674 0.175 30.064 1.556 33.89 3.765 38.879 6.646 42.705 8.856 46.298 10.931 48.512 14.765 48.513 18.915 L48.513 26.395 34.375 40.532 C32.506 42.401 29.476 42.401 27.607 40.532 L22.46 35.166 25.436 35.166 C25.68 35.167 25.914 35.072 26.089 34.903 27.927 33.14 38.409 23.076 38.409 23.076 40.278 21.207 40.278 18.177 38.409 16.308 Z" fill="#08d57f" fill-opacity="1" stroke="none"/>
     </g>
     <g id="Group_259">
      <path id="Path_20" d="M27.877 52.735 C25.92 53.468 21.177 52.535 18.448 51.019 14.587 48.871 9.633 45.929 5.808 43.719 2.215 41.644 0.001 37.81 0 33.66 L0 26.18 14.137 12.044 C16.006 10.175 19.036 10.175 20.905 12.044 L26.052 17.411 C25.056 17.104 23.994 17.085 22.988 17.354 22.804 17.386 22.634 17.472 22.5 17.602 20.9 19.135 10.1 29.502 10.1 29.502 8.231 31.371 8.231 34.401 10.1 36.27 Z" fill="#049a5b" fill-opacity="1" stroke="none"/>
     </g>
    </g>
   </g>
  </g>
 </g>
 <defs>
  <text id="string" transform="matrix(1.0 0.0 0.0 1.0 69.0 1.0)" x="1.0" font-family="Rubik" font-size="45" text-decoration="none" y="42.0" font-weight="600">OPTIMINE</text>
 </defs>
 <use id="OPTIMINE" xlink:href="#string" fill="#08d57f" fill-opacity="1" stroke="none"/>
</svg>
