<svg id="optilogo" xmlns="http://www.w3.org/2000/svg" xmlns:xlink="http://www.w3.org/1999/xlink" width="300" height="53.764" viewBox="0 0 300 53.764">
  <defs>
    <clipPath id="clip-path">
      <path id="Path_21" data-name="Path 21" d="M3157.009,1579.9a11.613,11.613,0,0,1,11.615,0c3.825,2.21,8.815,5.09,12.641,7.3a11.619,11.619,0,0,1,5.808,10.059v14.594a11.617,11.617,0,0,1-5.808,10.059c-3.825,2.21-8.815,5.09-12.641,7.3a11.613,11.613,0,0,1-11.615,0c-3.825-2.207-8.812-5.088-12.638-7.3a11.616,11.616,0,0,1-5.807-10.059V1597.26a11.619,11.619,0,0,1,5.807-10.059C3148.2,1584.994,3153.184,1582.113,3157.009,1579.9Zm14.021,27.392a3.872,3.872,0,0,0,0-5.478l-5.475-5.475a3.874,3.874,0,0,0-5.475,0l-5.477,5.475a3.878,3.878,0,0,0,0,5.478l5.477,5.475a3.87,3.87,0,0,0,5.475,0Z" transform="translate(-3138.564 -1578.347)" clip-rule="evenodd"/>
    </clipPath>
  </defs>
  <g id="Group_263" data-name="Group 263" transform="translate(0)">
    <g id="Group_262" data-name="Group 262" transform="translate(0)">
      <path id="Path_16" data-name="Path 16" d="M3157.009,1579.9a11.613,11.613,0,0,1,11.615,0c3.825,2.21,8.815,5.09,12.641,7.3a11.619,11.619,0,0,1,5.808,10.059v14.594a11.617,11.617,0,0,1-5.808,10.059c-3.825,2.21-8.815,5.09-12.641,7.3a11.613,11.613,0,0,1-11.615,0c-3.825-2.207-8.812-5.088-12.638-7.3a11.616,11.616,0,0,1-5.807-10.059V1597.26a11.619,11.619,0,0,1,5.807-10.059C3148.2,1584.994,3153.184,1582.113,3157.009,1579.9Zm14.021,27.392a3.872,3.872,0,0,0,0-5.478l-5.475-5.475a3.874,3.874,0,0,0-5.475,0l-5.477,5.475a3.878,3.878,0,0,0,0,5.478l5.477,5.475a3.87,3.87,0,0,0,5.475,0Z" transform="translate(-3138.564 -1578.347)" fill="#55c595" fill-rule="evenodd"/>
      <g id="Group_261" data-name="Group 261" transform="translate(0)" clip-path="url(#clip-path)">
        <g id="Group_260" data-name="Group 260" transform="translate(0 -2.342)">
          <g id="Group_256" data-name="Group 256" transform="translate(0 2.342)">
            <path id="Path_17" data-name="Path 17" d="M3168.57,1579.873c-2.393-1.35-5.965-1.4-8.582-.95l16.981,15.73a4.786,4.786,0,0,1,0,6.768l-5.374,5.16h0a3.879,3.879,0,0,0-.565-4.762l-5.475-5.475a3.846,3.846,0,0,0-1.131-.785l-4.956-5.168a4.786,4.786,0,0,0-6.768,0l-14.137,14.135v-7.266a11.619,11.619,0,0,1,5.807-10.059c3.825-2.207,8.813-5.088,12.638-7.3a11.613,11.613,0,0,1,11.615,0Z" transform="translate(-3138.564 -1578.347)" fill="#12eb90" fill-rule="evenodd"/>
          </g>
          <g id="Group_257" data-name="Group 257" transform="translate(48.509 54.908) rotate(180)">
            <path id="Path_18" data-name="Path 18" d="M30.007,1.526c-2.393-1.35-5.965-1.4-8.583-.95l16.982,15.73a4.786,4.786,0,0,1,0,6.768l-5.374,5.16h0a3.877,3.877,0,0,0-.565-4.762L26.992,18a3.842,3.842,0,0,0-1.131-.785l-4.956-5.168a4.786,4.786,0,0,0-6.768,0L0,26.179V18.913A11.619,11.619,0,0,1,5.808,8.854c3.825-2.207,8.812-5.088,12.638-7.3a11.614,11.614,0,0,1,11.615,0Z" transform="translate(0 0)" fill="#05ad66" fill-rule="evenodd"/>
          </g>
          <g id="Group_258" data-name="Group 258" transform="translate(18.327 0)">
            <path id="Path_19" data-name="Path 19" d="M3216.4,1568.447c2.638-.454,9.344,2.47,11.734,3.851,3.826,2.209,8.815,5.09,12.641,7.3a11.619,11.619,0,0,1,5.808,10.059v7.48l-14.138,14.137a4.786,4.786,0,0,1-6.768,0l-5.147-5.366h2.976a.936.936,0,0,0,.653-.263c1.838-1.763,12.32-11.827,12.32-11.827a4.786,4.786,0,0,0,0-6.768Z" transform="translate(-3216.397 -1568.4)" fill="#08d57f" fill-rule="evenodd"/>
          </g>
          <g id="Group_259" data-name="Group 259" transform="translate(27.877 55.332) rotate(180)">
            <path id="Path_20" data-name="Path 20" d="M0,.255c1.957-.733,6.7.2,9.429,1.716,3.861,2.148,8.815,5.09,12.64,7.3a11.619,11.619,0,0,1,5.808,10.059v7.48L13.74,40.946a4.786,4.786,0,0,1-6.768,0L1.825,35.579a5.543,5.543,0,0,0,3.064.057.93.93,0,0,0,.488-.248c1.6-1.533,12.4-11.9,12.4-11.9a4.786,4.786,0,0,0,0-6.768Z" transform="translate(0 0)" fill="#049a5b" fill-rule="evenodd"/>
          </g>
        </g>
      </g>
    </g>
  </g>
  <text id="OPTIMINE" transform="translate(67.951 42.764)" fill="#08d57f" font-size="45" font-family="Rubik" font-weight="600"><tspan x="0" y="0">OPTIMINE</tspan></text>
</svg>
