<?xml version="1.0" encoding="UTF-8"?>
<svg width="100px" height="90px" viewBox="0 0 100 90" version="1.1" xmlns="http://www.w3.org/2000/svg" xmlns:xlink="http://www.w3.org/1999/xlink">
    <title>Artboard</title>
    <g id="Page-1" stroke="none" stroke-width="1" fill="none" fill-rule="evenodd">
        <g id="Artboard" fill="#000000" fill-rule="nonzero">
            <g id="Group">
                <path d="M97.9994376,31.308 L1.99943761,31.308 C1.22143761,31.308 0.514437605,30.857 0.186437605,30.151 C-0.141562395,29.445 -0.0305623948,28.613 0.470437605,28.019 L23.4944376,0.711 C23.8744376,0.26 24.4334376,-3.55271368e-15 25.0234376,-3.55271368e-15 L74.9804376,-3.55271368e-15 C75.5704376,-3.55271368e-15 76.1294376,0.26 76.5094376,0.711 L99.5284376,28.019 C100.029438,28.614 100.140438,29.446 99.8124376,30.151 C99.4844376,30.856 98.7774376,31.308 97.9994376,31.308 Z M6.30243761,27.308 L93.6984376,27.308 L74.0514376,4 L25.9534376,4 L6.30243761,27.308 Z" id="Shape"></path>
                <polygon id="Path" points="49.9994376 89.415 0.469437605 30.596 3.52943761 28.02 49.9994376 83.204 96.4694376 28.02 99.5294376 30.596"></polygon>
                <path d="M49.9994376,88.309 L49.9994376,88.309 C49.1504376,88.309 48.3954376,87.774 48.1134376,86.974 L28.0174376,29.973 C27.7964376,29.348 27.9004376,28.656 28.2924376,28.122 L48.3884376,0.814 C49.1404376,-0.21 50.8554376,-0.21 51.6094376,0.814 L71.7094376,28.122 C72.1024376,28.655 72.2054376,29.348 71.9844376,29.973 L51.8844376,86.974 C51.6034376,87.774 50.8484376,88.309 49.9994376,88.309 Z M32.1414376,29.641 L49.9984376,80.295 L67.8594376,29.641 L49.9994376,5.374 L32.1414376,29.641 Z" id="Shape"></path>
                <rect id="Rectangle" transform="translate(27.463328, 15.653118) rotate(79.868882) translate(-27.463328, -15.653118) " x="13.5934373" y="13.6531336" width="27.7397804" height="3.99996834"></rect>
                <rect id="Rectangle" transform="translate(72.541560, 15.652619) rotate(10.136758) translate(-72.541560, -15.652619) " x="70.5415402" y="1.78198513" width="4.00003872" height="27.7412685"></rect>
            </g>
        </g>
    </g>
</svg>