<?xml version="1.0" encoding="UTF-8"?>
<svg width="80px" height="66px" viewBox="0 0 80 66" version="1.1" xmlns="http://www.w3.org/2000/svg" xmlns:xlink="http://www.w3.org/1999/xlink">
    <title>Combined Shape</title>
    <g id="Page-1" stroke="none" stroke-width="1" fill="none" fill-rule="evenodd" fill-opacity="0.4">
        <g id="Artboard" transform="translate(-1280.000000, -629.000000)" fill="#FFFFFF">
            <g id="Group-Copy" transform="translate(662.000000, 121.000000)">
                <g id="список" transform="translate(328.000000, 494.000000)">
                    <g id="Group-8">
                        <g id="online" transform="translate(290.000000, 14.000000)">
                            <path d="M40,3.17612603e-12 C62.09139,3.17612603e-12 80,17.90861 80,40 C80,48.4060777 77.4069996,56.2065276 72.9772213,62.6451272 C72.8171421,62.9069939 72.6408188,63.1569296 72.4493266,63.3941088 C72.301644,63.5984361 72.1522152,63.8012862 72.0009299,64.0026619 L72.0015996,63.8973499 C70.7309694,65.1948573 68.9595103,66 67,66 C63.1340068,66 60,62.8659932 60,59 C60,57.04099 60.8047316,55.2699351 62.1016565,53.9993737 L61.9121045,54.0009744 C64.4997729,49.9595702 66,45.1549835 66,40 C66,25.6405965 54.3594035,14 40,14 C25.6405965,14 14,25.6405965 14,40 C14,45.1549835 15.5002271,49.9595702 18.0878955,54.0009744 L17.8983435,53.9993737 C19.1952684,55.2699351 20,57.04099 20,59 C20,62.8659932 16.8659932,66 13,66 C11.0404897,66 9.26903056,65.1948573 7.99840044,63.8973499 L7.99981837,64.0036579 C7.84827301,63.801949 7.69859036,63.5987608 7.55079598,63.3941187 C7.36260389,63.1611689 7.18916586,62.9159245 7.0317563,62.6597726 C2.59677176,56.2178684 0,48.4121884 0,40 C0,17.90861 17.90861,3.17612603e-12 40,3.17612603e-12 Z" id="Combined-Shape"></path>
                        </g>
                    </g>
                </g>
            </g>
        </g>
    </g>
</svg>