<?xml version="1.0" standalone="no"?>
<!DOCTYPE svg PUBLIC "-//W3C//DTD SVG 20010904//EN"
 "http://www.w3.org/TR/2001/REC-SVG-20010904/DTD/svg10.dtd">
<svg version="1.0" xmlns="http://www.w3.org/2000/svg"
 width="700.000000pt" height="700.000000pt" viewBox="0 0 700.000000 700.000000"
 preserveAspectRatio="xMidYMid meet">
<metadata>
Created by potrace 1.14, written by Peter Selinger 2001-2017
</metadata>
<g transform="translate(0.000000,700.000000) scale(0.100000,-0.100000)"
fill="#000000" stroke="none">
<path d="M3049 6996 c-2 -2 -33 -7 -68 -10 -36 -4 -68 -9 -72 -11 -3 -3 -24
-7 -45 -11 -64 -10 -244 -74 -334 -118 -47 -24 -148 -79 -225 -123 -380 -218
-575 -329 -625 -356 -30 -16 -59 -33 -65 -37 -5 -4 -212 -123 -460 -265 -466
-266 -528 -305 -645 -407 -256 -221 -453 -585 -497 -923 -4 -33 -8 -566 -8
-1185 l0 -1125 22 -100 c47 -210 120 -383 236 -557 75 -113 269 -311 377 -385
57 -39 719 -422 1006 -584 22 -12 84 -47 139 -79 55 -31 120 -68 145 -82 25
-14 153 -88 285 -163 132 -76 281 -158 330 -181 380 -181 834 -195 1227 -38
86 34 281 135 338 174 14 9 30 19 36 21 53 20 1586 909 1651 958 336 252 558
641 599 1051 10 97 10 2110 1 2215 -23 240 -111 483 -254 699 -80 121 -261
306 -378 387 -65 45 -390 236 -615 361 -25 14 -119 68 -210 120 -91 52 -185
107 -210 120 -25 14 -216 124 -425 243 -397 228 -488 275 -619 319 -149 50
-267 69 -457 73 -96 2 -177 2 -180 -1z m286 -2221 c132 -35 151 -51 597 -495
356 -354 421 -424 446 -475 101 -206 62 -431 -102 -595 -396 -398 -761 -753
-801 -777 -130 -81 -293 -100 -439 -49 -43 14 -98 40 -122 57 -66 45 -829 804
-865 860 -97 152 -103 347 -16 514 33 62 95 126 643 665 238 234 277 263 394
296 63 17 195 17 265 -1z"/>
</g>
</svg>
