<?xml version="1.0" encoding="UTF-8"?>
<svg width="100px" height="156px" viewBox="0 0 100 156" version="1.1" xmlns="http://www.w3.org/2000/svg" xmlns:xlink="http://www.w3.org/1999/xlink">
    <title>OPTIUM</title>
    <defs>
        <linearGradient x1="28.0703%" y1="85.8279899%" x2="70.4340049%" y2="12.3009836%" id="linearGradient-1">
            <stop stop-color="#E78DFF" offset="0%"></stop>
            <stop stop-color="#EC9DFF" offset="25%"></stop>
            <stop stop-color="#FAD0FF" offset="49%"></stop>
            <stop stop-color="#F8A5FF" offset="71%"></stop>
            <stop stop-color="#F79AFF" offset="100%"></stop>
        </linearGradient>
        <linearGradient x1="71.6508066%" y1="93.3013271%" x2="28.3495476%" y2="6.69853655%" id="linearGradient-2">
            <stop stop-color="#A327FF" offset="0%"></stop>
            <stop stop-color="#F05EFF" offset="100%"></stop>
        </linearGradient>
    </defs>
    <g id="Page-1" stroke="none" stroke-width="1" fill="none" fill-rule="evenodd">
        <g id="OPTIUM" transform="translate(-0.000000, 0.000000)">
            <g id="Group" transform="translate(13.227922, 87.180157)">
                <path d="M60.5080784,62.9988235 C60.5080784,62.9988235 67.7406275,66.7996078 71.2873725,68.6633725 C71.692549,68.8763137 72.1796078,68.8618039 72.5713725,68.625098 C72.9632157,68.3883922 73.2026667,67.964 73.2026667,67.5062745 C73.2026667,55.7421176 73.2026667,0 73.2026667,0 L60.5080784,0 L60.5080784,62.9988235 L60.5080784,62.9988235 Z" id="Path" fill="#7B10FF"></path>
                <path d="M12.6945882,62.9988235 C12.6945882,62.9988235 5.46203922,66.7996078 1.91529412,68.6633725 C1.51011765,68.8763137 1.02305882,68.8618039 0.631215686,68.625098 C0.23945098,68.3883922 -4.45830736e-15,67.964 -4.45830736e-15,67.5062745 C-4.45830736e-15,55.7421176 -4.45830736e-15,0 -4.45830736e-15,0 L12.6945882,0 L12.6945882,62.9988235 L12.6945882,62.9988235 Z" id="Path" fill="#7B10FF"></path>
                <path d="M60.5080784,0.000392156863 L60.5080784,62.9992157 C60.5080784,62.9992157 40.9341961,52.7129412 37.2094118,50.7555294 C36.8287059,50.5555294 36.3739608,50.5555294 35.9932549,50.7555294 C32.2684706,52.7129412 12.6945882,62.9992157 12.6945882,62.9992157 L12.6945882,0.000392156863 L60.5080784,0.000392156863 L60.5080784,0.000392156863 Z" id="Path" fill="#BF6BFF"></path>
            </g>
            <g id="Group" transform="translate(-0.000000, 0.000000)">
                <polygon id="Path" fill="url(#linearGradient-1)" points="1.42805158e-15 86.3068235 1.42805158e-15 28.7689412 49.8292549 0 99.6585098 28.7689412 99.6585098 86.3068235 49.8292549 115.075765"></polygon>
                <path d="M0,86.3068235 L0,28.7689412 L49.8292549,0 L99.6585098,28.7689412 L99.6585098,86.3068235 L49.8292549,115.075765 L0,86.3068235 Z M9.13984314,81.0299608 L9.13984314,34.0458824 C9.13984314,34.0458824 49.8292549,10.5538039 49.8292549,10.5538039 C49.8292549,10.5538039 90.5186667,34.0458824 90.5186667,34.0458824 C90.5186667,34.0458824 90.5186667,81.0299608 90.5186667,81.0299608 C90.5186667,81.0299608 49.8292549,104.521961 49.8292549,104.521961 L9.13984314,81.0299608 Z" id="Shape" fill="url(#linearGradient-2)"></path>
                <path d="M18.2098382,62.6875 C19.1629632,62.6875 20.0080153,62.4583333 20.7449945,62 C21.4819737,61.5416667 22.0483799,60.890625 22.4442132,60.046875 C22.8400466,59.203125 23.0379632,58.2213542 23.0379632,57.1015625 L23.0379632,57.1015625 L23.0379632,56.59375 C23.0379632,55.4791667 22.8361403,54.4960938 22.4324945,53.6445312 C22.0288487,52.7929688 21.4585362,52.1393229 20.721557,51.6835938 C19.9845778,51.2278646 19.1421299,51 18.1942132,51 C17.2462966,51 16.4038487,51.2278646 15.6668695,51.6835938 C14.9298903,52.1393229 14.3595778,52.7929688 13.955932,53.6445312 C13.5522862,54.4960938 13.3504632,55.4817708 13.3504632,56.6015625 L13.3504632,56.6015625 L13.3504632,57.1640625 C13.3556716,58.2578125 13.5614007,59.2252604 13.9676507,60.0664062 C14.3739007,60.9075521 14.9468174,61.5546875 15.6864007,62.0078125 C16.4259841,62.4609375 17.2671299,62.6875 18.2098382,62.6875 Z M18.2098382,60.765625 C17.4077549,60.765625 16.7931716,60.4453125 16.3660882,59.8046875 C15.9390049,59.1640625 15.7254632,58.2630208 15.7254632,57.1015625 L15.7254632,57.1015625 L15.7254632,56.546875 C15.7306716,55.3645833 15.9468174,54.4674479 16.3739007,53.8554688 C16.8009841,53.2434896 17.4077549,52.9375 18.1942132,52.9375 C18.9858799,52.9375 19.5952549,53.2473958 20.0223382,53.8671875 C20.4494216,54.4869792 20.6629632,55.3932292 20.6629632,56.5859375 L20.6629632,56.5859375 L20.6629632,57.140625 C20.6577549,58.3229167 20.4442132,59.2226562 20.0223382,59.8398438 C19.6004632,60.4570312 18.9962966,60.765625 18.2098382,60.765625 Z M27.0848382,62.53125 L27.0848382,58.5234375 L29.1395257,58.5234375 C30.4884841,58.5234375 31.5444737,58.2018229 32.3074945,57.5585938 C33.0705153,56.9153646 33.4520257,56.0364583 33.4520257,54.921875 C33.4520257,54.1875 33.2775466,53.5325521 32.9285882,52.9570312 C32.5796299,52.3815104 32.080932,51.9375 31.4324945,51.625 C30.784057,51.3125 30.0327549,51.15625 29.1785882,51.15625 L29.1785882,51.15625 L24.7410882,51.15625 L24.7410882,62.53125 L27.0848382,62.53125 Z M29.1785882,56.625 L27.0848382,56.625 L27.0848382,53.0546875 L29.2332757,53.0546875 C29.8114007,53.0651042 30.2645257,53.2421875 30.5926507,53.5859375 C30.9207757,53.9296875 31.0848382,54.3802083 31.0848382,54.9375 C31.0848382,55.4791667 30.9220778,55.8958333 30.596557,56.1875 C30.2710362,56.4791667 29.7983799,56.625 29.1785882,56.625 L29.1785882,56.625 Z M40.1395257,62.53125 L40.1395257,53.0546875 L43.6239007,53.0546875 L43.6239007,51.15625 L34.3582757,51.15625 L34.3582757,53.0546875 L37.7957757,53.0546875 L37.7957757,62.53125 L40.1395257,62.53125 Z M47.4520257,62.53125 L47.4520257,51.15625 L45.1082757,51.15625 L45.1082757,62.53125 L47.4520257,62.53125 Z M51.9676507,62.53125 L51.9676507,59.421875 L51.7332757,54.0625 L54.7957757,62.53125 L56.4051507,62.53125 L59.4754632,54.0546875 L59.2410882,59.421875 L59.2410882,62.53125 L61.5926507,62.53125 L61.5926507,51.15625 L58.5145257,51.15625 L55.6082757,59.40625 L52.6864007,51.15625 L49.6239007,51.15625 L49.6239007,62.53125 L51.9676507,62.53125 Z M67.8895257,62.6875 C69.2384841,62.6875 70.3022862,62.3255208 71.080932,61.6015625 C71.8595778,60.8776042 72.2489007,59.8932292 72.2489007,58.6484375 L72.2489007,58.6484375 L72.2489007,51.15625 L69.8973382,51.15625 L69.8973382,58.7265625 C69.8765049,60.1119792 69.2072341,60.8046875 67.8895257,60.8046875 C67.2593174,60.8046875 66.7658278,60.6341146 66.409057,60.2929688 C66.0522862,59.9518229 65.8739007,59.4088542 65.8739007,58.6640625 L65.8739007,58.6640625 L65.8739007,51.15625 L63.5301507,51.15625 L63.5301507,58.734375 C63.5457757,59.9635417 63.9442132,60.9296875 64.7254632,61.6328125 C65.5067132,62.3359375 66.5614007,62.6875 67.8895257,62.6875 Z M76.5145257,62.53125 L76.5145257,59.421875 L76.2801507,54.0625 L79.3426507,62.53125 L80.9520257,62.53125 L84.0223382,54.0546875 L83.7879632,59.421875 L83.7879632,62.53125 L86.1395257,62.53125 L86.1395257,51.15625 L83.0614007,51.15625 L80.1551507,59.40625 L77.2332757,51.15625 L74.1707757,51.15625 L74.1707757,62.53125 L76.5145257,62.53125 Z" id="OPTIMUM" fill="#9513FE" fill-rule="nonzero"></path>
            </g>
        </g>
    </g>
</svg>