<?xml version="1.0" encoding="UTF-8"?>
<svg width="48px" height="76px" viewBox="0 0 48 76" version="1.1" xmlns="http://www.w3.org/2000/svg" xmlns:xlink="http://www.w3.org/1999/xlink">
    <title>optimum_min</title>
    <defs>
        <linearGradient x1="28.0703%" y1="85.8279899%" x2="70.4340049%" y2="12.3009836%" id="linearGradient-1">
            <stop stop-color="#E78DFF" offset="0%"></stop>
            <stop stop-color="#EC9DFF" offset="25%"></stop>
            <stop stop-color="#FAD0FF" offset="49%"></stop>
            <stop stop-color="#F8A5FF" offset="71%"></stop>
            <stop stop-color="#F79AFF" offset="100%"></stop>
        </linearGradient>
        <linearGradient x1="71.6508066%" y1="93.3013271%" x2="28.3495476%" y2="6.69853655%" id="linearGradient-2">
            <stop stop-color="#A327FF" offset="0%"></stop>
            <stop stop-color="#F05EFF" offset="100%"></stop>
        </linearGradient>
    </defs>
    <g id="Page-1" stroke="none" stroke-width="1" fill="none" fill-rule="evenodd">
        <g id="optimum_min" transform="translate(0.000000, 0.000000)">
            <g id="Group" transform="translate(6.371159, 41.989867)">
                <path d="M29.1433995,30.3430538 C29.1433995,30.3430538 32.6269189,32.1736817 34.3351901,33.0713543 C34.5303413,33.1739163 34.7649306,33.1669277 34.953622,33.0529195 C35.1423512,32.9389114 35.2576815,32.7345051 35.2576815,32.514044 C35.2576815,26.8478994 35.2576815,0 35.2576815,0 L29.1433995,0 L29.1433995,30.3430538 L29.1433995,30.3430538 Z" id="Path" fill="#7B10FF"></path>
                <path d="M6.11428203,30.3430538 C6.11428203,30.3430538 2.63076262,32.1736817 0.922491394,33.0713543 C0.727340266,33.1739163 0.492750931,33.1669277 0.304021734,33.0529195 C0.115330312,32.9389114 -2.14732042e-15,32.7345051 -2.14732042e-15,32.514044 C-2.14732042e-15,26.8478994 -2.14732042e-15,0 -2.14732042e-15,0 L6.11428203,0 L6.11428203,30.3430538 L6.11428203,30.3430538 Z" id="Path" fill="#7B10FF"></path>
                <path d="M29.1433995,0.000188880302 L29.1433995,30.3432427 C29.1433995,30.3432427 19.7157414,25.3889124 17.9217186,24.4461353 C17.7383536,24.3498063 17.519328,24.3498063 17.335963,24.4461353 C15.5419401,25.3889124 6.11428203,30.3432427 6.11428203,30.3432427 L6.11428203,0.000188880302 L29.1433995,0.000188880302 L29.1433995,0.000188880302 Z" id="Path" fill="#BF6BFF"></path>
            </g>
            <g id="Group">
                <polygon id="Path" fill="url(#linearGradient-1)" points="6.87813573e-16 41.5692301 6.87813573e-16 13.85641 24 0 48 13.85641 48 41.5692301 24 55.4256402"></polygon>
                <path d="M0,41.5692301 L0,13.85641 L24,0 L48,13.85641 L48,41.5692301 L24,55.4256402 L0,41.5692301 Z M4.40215764,39.0276568 L4.40215764,16.3980212 C4.40215764,16.3980212 24,5.08318446 24,5.08318446 C24,5.08318446 43.5978424,16.3980212 43.5978424,16.3980212 C43.5978424,16.3980212 43.5978424,39.0276568 43.5978424,39.0276568 C43.5978424,39.0276568 24,50.3424557 24,50.3424557 L4.40215764,39.0276568 Z" id="Shape" fill="url(#linearGradient-2)"></path>
                <path d="M23.9814792,20 C25.279162,20 26.4324597,20.311943 27.4413724,20.9358289 C28.4502851,21.5597148 29.2310337,22.4545455 29.7836183,23.6203208 C30.336203,24.7860963 30.6124953,26.1319074 30.6124953,27.657754 L30.6124953,27.657754 L30.6124953,28.3529412 L30.6068506,28.732249 C30.5654563,30.1086107 30.2963932,31.3262032 29.7996611,32.3850267 C29.2577716,33.540107 28.4823706,34.4313726 27.4734579,35.0588235 C26.4645452,35.6862745 25.3076825,36 24.0028696,36 C22.7123171,36 21.560802,35.6898396 20.5483242,35.0695187 C19.5358465,34.4491979 18.7515327,33.5632799 18.195383,32.4117646 C17.6392333,31.2602495 17.3575934,29.9358289 17.3504632,28.4385027 L17.3504632,28.4385027 L17.3504632,27.6684492 L17.3562193,27.28903 C17.3984306,25.9118513 17.6728044,24.6889484 18.1793403,23.6203208 C18.7319249,22.4545455 19.5126736,21.5597148 20.5215863,20.9358289 C21.530499,20.311943 22.6837966,20 23.9814792,20 Z M23.9814792,22.6524064 C22.9048304,22.6524064 22.074171,23.0713013 21.4895006,23.909091 C20.9048304,24.7468805 20.6089303,25.9750445 20.6018001,27.5935829 L20.6018001,27.5935829 L20.6018001,28.3529412 L20.6062746,28.6882025 C20.6450538,30.117356 20.9358974,31.2391138 21.4788054,32.0534759 C22.0634758,32.9304813 22.9048304,33.368984 24.0028696,33.368984 C25.0795185,33.368984 25.9066129,32.946524 26.484153,32.1016043 C27.0616931,31.2566844 27.3540283,30.0249555 27.3611584,28.4064171 L27.3611584,28.4064171 L27.3611584,27.6470588 L27.3572606,27.3257279 C27.3208811,25.8505843 27.0298453,24.7170529 26.484153,23.9251337 C25.8994829,23.0766488 25.0652583,22.6524064 23.9814792,22.6524064 Z" id="Combined-Shape" fill="#9513FE" fill-rule="nonzero"></path>
            </g>
        </g>
    </g>
</svg>