<?xml version="1.0" encoding="UTF-8"?>
<svg width="48px" height="76px" viewBox="0 0 48 76" version="1.1" xmlns="http://www.w3.org/2000/svg" xmlns:xlink="http://www.w3.org/1999/xlink">
    <title>vip_min</title>
    <defs>
        <linearGradient x1="40.7766153%" y1="13.2861288%" x2="50%" y2="106.48295%" id="linearGradient-1">
            <stop stop-color="#F6FAF6" offset="0%"></stop>
            <stop stop-color="#707270" offset="100%"></stop>
        </linearGradient>
        <linearGradient x1="-7.73503231%" y1="50.0000343%" x2="107.734731%" y2="50.0000343%" id="linearGradient-2">
            <stop stop-color="#DEE2DF" offset="0%"></stop>
            <stop stop-color="#B6BBB7" offset="100%"></stop>
        </linearGradient>
    </defs>
    <g id="Page-1" stroke="none" stroke-width="1" fill="none" fill-rule="evenodd">
        <g id="vip_min" fill-rule="nonzero">
            <g id="Group" transform="translate(6.263791, 42.068116)">
                <path d="M29.3208589,30.5280477 C29.3208589,30.5280477 32.8256326,32.369825 34.544308,33.2730028 C34.7406477,33.3761895 34.9766658,33.3691583 35.1665065,33.2544558 C35.3563851,33.1397533 35.4723798,32.9341021 35.4723798,32.7122983 C35.4723798,27.0116061 35.4723798,0.000190030674 35.4723798,0.000190030674 L29.3208589,0.000190030674 L29.3208589,30.5280477 L29.3208589,30.5280477 Z" id="Path" fill="#646665"></path>
                <path d="M6.15152096,30.5280477 C6.15152096,30.5280477 2.64678524,32.369825 0.928109812,33.2730028 C0.73177012,33.3761895 0.495752023,33.3691583 0.305873373,33.2544558 C0.11603273,33.1397533 0,32.9341021 0,32.7122983 C0,27.0116061 0,0.000190030674 0,0.000190030674 L6.15152096,0.000190030674 L6.15152096,30.5280477 L6.15152096,30.5280477 Z" id="Path" fill="#6E706F"></path>
                <path d="M29.3208589,0 L29.3208589,30.5278577 C29.3208589,30.5278577 19.8358198,25.5433911 18.0308705,24.594872 C17.8463887,24.4979184 17.6260291,24.4979184 17.4415474,24.594872 C15.636598,25.5433911 6.15152096,30.5278577 6.15152096,30.5278577 L6.15152096,0 L29.3208589,0 Z" id="Path" fill="#ADB1AE"></path>
            </g>
            <g id="Group">
                <polygon id="Path" fill="url(#linearGradient-1)" points="24 0 48 13.8563907 48 41.56921 24 55.4256006 0 41.56921 0 13.8563907"></polygon>
                <path d="M24,0 L48,13.8563907 L48,41.56921 L24,55.4256006 L0,41.56921 L0,13.8563907 L24,0 Z M24,5.11414351 C28.5702377,7.75279543 39.0007554,13.7748675 43.5709931,16.4134814 C43.5709931,16.4134814 43.5709931,39.0121572 43.5709931,39.0121572 C43.5709931,39.0121572 24,50.3114571 24,50.3114571 C24,50.3114571 4.42896891,39.0121572 4.42896891,39.0121572 C4.42896891,39.0121572 4.42896891,16.4134814 4.42896891,16.4134814 L24,5.11414351 Z" id="Shape" fill="url(#linearGradient-2)"></path>
            </g>
        </g>
    </g>
</svg>