<?xml version="1.0" encoding="UTF-8"?>
<svg width="48px" height="76px" viewBox="0 0 48 76" version="1.1" xmlns="http://www.w3.org/2000/svg" xmlns:xlink="http://www.w3.org/1999/xlink">
    <title>premium_min</title>
    <defs>
        <linearGradient x1="23.9142862%" y1="88.2386779%" x2="84.2083889%" y2="22.2049105%" id="linearGradient-1">
            <stop stop-color="#CBF3FF" offset="0%"></stop>
            <stop stop-color="#D1F4FF" offset="29%"></stop>
            <stop stop-color="#DFF6FE" offset="40%"></stop>
            <stop stop-color="#ECF8FD" offset="49%"></stop>
            <stop stop-color="#D6FBFC" offset="73%"></stop>
            <stop stop-color="#CFFCFC" offset="100%"></stop>
        </linearGradient>
        <linearGradient x1="71.6505705%" y1="93.3013271%" x2="28.3493115%" y2="6.69853655%" id="linearGradient-2">
            <stop stop-color="#6FD0FF" offset="0%"></stop>
            <stop stop-color="#D5FBFE" offset="100%"></stop>
        </linearGradient>
    </defs>
    <g id="Page-1" stroke="none" stroke-width="1" fill="none" fill-rule="evenodd">
        <g id="premium_min" transform="translate(0.000000, -0.000000)">
            <g id="Group" transform="translate(6.371159, 41.989111)">
                <path d="M29.1433995,30.3430538 C29.1433995,30.3430538 32.6269189,32.1736817 34.3351901,33.071392 C34.5303413,33.173954 34.7649306,33.1669277 34.9536598,33.0529195 C35.1423512,32.9389114 35.2576815,32.7345051 35.2576815,32.514044 C35.2576815,26.8478994 35.2576815,0 35.2576815,0 L29.1433995,0 L29.1433995,30.3430538 L29.1433995,30.3430538 Z" id="Path" fill="#0C70CA"></path>
                <path d="M6.11428203,30.3430538 C6.11428203,30.3430538 2.63076262,32.1736817 0.922491394,33.071392 C0.727340266,33.173954 0.492750931,33.1669277 0.30405951,33.0529195 C0.115330312,32.9389114 -1.07366021e-15,32.7345051 -1.07366021e-15,32.514044 C-1.07366021e-15,26.8478994 -1.07366021e-15,0 -1.07366021e-15,0 L6.11428203,0 L6.11428203,30.3430538 L6.11428203,30.3430538 Z" id="Path" fill="#0C70CA"></path>
                <path d="M29.1433995,0.000188880302 L29.1433995,30.3432427 C29.1433995,30.3432427 19.7157414,25.3889124 17.9217186,24.446173 C17.7383536,24.3498063 17.519328,24.3498063 17.335963,24.446173 C15.5419401,25.3889124 6.11428203,30.3432427 6.11428203,30.3432427 L6.11428203,0.000188880302 L29.1433995,0.000188880302 L29.1433995,0.000188880302 Z" id="Path" fill="#0485FA"></path>
            </g>
            <g id="Group" transform="translate(0.000000, 0.000000)">
                <polygon id="Path" fill="url(#linearGradient-1)" points="2.02988884e-15 41.5692301 2.02988884e-15 13.85641 24 0 48 13.85641 48 41.5692301 24 55.4256402"></polygon>
                <path d="M2.02988884e-15,41.5692301 L2.02988884e-15,13.85641 L24,0 L48,13.85641 L48,41.5692301 L24,55.4256402 L2.02988884e-15,41.5692301 Z M4.40215764,39.0276568 L4.40215764,16.3980212 C4.40215764,16.3980212 24,5.08318446 24,5.08318446 C28.5676923,7.72033123 39.03015,13.7608366 43.5978424,16.3980212 C43.5978424,16.3980212 43.5978424,39.0276568 43.5978424,39.0276568 C43.5978424,39.0276568 24,50.3424557 24,50.3424557 L4.40215764,39.0276568 Z" id="Shape" fill="url(#linearGradient-2)"></path>
                <path d="M24.2133048,20 L24.5694037,20.0065934 C25.6246784,20.0461538 26.5627554,20.2637363 27.3836344,20.6593407 C28.2957224,21.0989011 28.9971875,21.7234432 29.4880301,22.532967 C29.9788726,23.3424909 30.2242939,24.2637363 30.2242939,25.2967033 C30.2242939,26.8644688 29.6876638,28.1007326 28.6144037,29.0054946 C27.5411436,29.9102564 26.0557956,30.3626374 24.1583598,30.3626374 L24.1583598,30.3626374 L21.2682499,30.3626374 L21.2682499,36 L17.9715466,36 L17.9715466,20 L24.2133048,20 Z M24.2902279,22.6703297 L21.2682499,22.6703297 L21.2682499,27.6923077 L24.2133048,27.6923077 C25.0850996,27.6923077 25.7499349,27.4871795 26.2078103,27.0769231 C26.6656858,26.6666666 26.8946235,26.0805861 26.8946235,25.3186813 C26.8946235,24.5347985 26.6638543,23.9010989 26.2023158,23.4175824 C25.7407774,22.9340659 25.1034147,22.6849817 24.2902279,22.6703297 L24.2902279,22.6703297 Z" id="Combined-Shape" fill="#36A1FF" fill-rule="nonzero"></path>
            </g>
        </g>
    </g>
</svg>