<?xml version="1.0" encoding="UTF-8"?>
<svg width="100px" height="156px" viewBox="0 0 100 156" version="1.1" xmlns="http://www.w3.org/2000/svg" xmlns:xlink="http://www.w3.org/1999/xlink">
    <title>Premium</title>
    <defs>
        <linearGradient x1="23.9142862%" y1="88.2386779%" x2="84.2083889%" y2="22.2049105%" id="linearGradient-1">
            <stop stop-color="#CBF3FF" offset="0%"></stop>
            <stop stop-color="#D1F4FF" offset="29%"></stop>
            <stop stop-color="#DFF6FE" offset="40%"></stop>
            <stop stop-color="#ECF8FD" offset="49%"></stop>
            <stop stop-color="#D6FBFC" offset="73%"></stop>
            <stop stop-color="#CFFCFC" offset="100%"></stop>
        </linearGradient>
        <linearGradient x1="71.6505705%" y1="93.3013271%" x2="28.3493115%" y2="6.69853655%" id="linearGradient-2">
            <stop stop-color="#6FD0FF" offset="0%"></stop>
            <stop stop-color="#D5FBFE" offset="100%"></stop>
        </linearGradient>
    </defs>
    <g id="Page-1" stroke="none" stroke-width="1" fill="none" fill-rule="evenodd">
        <g id="Premium" transform="translate(0.000000, 0.000000)">
            <g id="Group" transform="translate(13.227922, 87.178588)">
                <path d="M60.5080784,62.9988235 C60.5080784,62.9988235 67.7406275,66.7996078 71.2873725,68.663451 C71.692549,68.8763922 72.1796078,68.8618039 72.571451,68.625098 C72.9632157,68.3883922 73.2026667,67.964 73.2026667,67.5062745 C73.2026667,55.7421176 73.2026667,0 73.2026667,0 L60.5080784,0 L60.5080784,62.9988235 L60.5080784,62.9988235 Z" id="Path" fill="#0C70CA"></path>
                <path d="M12.6945882,62.9988235 C12.6945882,62.9988235 5.46203922,66.7996078 1.91529412,68.663451 C1.51011765,68.8763922 1.02305882,68.8618039 0.631294118,68.625098 C0.23945098,68.3883922 -2.22915368e-15,67.964 -2.22915368e-15,67.5062745 C-2.22915368e-15,55.7421176 -2.22915368e-15,0 -2.22915368e-15,0 L12.6945882,0 L12.6945882,62.9988235 L12.6945882,62.9988235 Z" id="Path" fill="#0C70CA"></path>
                <path d="M60.5080784,0.000392156863 L60.5080784,62.9992157 C60.5080784,62.9992157 40.9341961,52.7129412 37.2094118,50.7556078 C36.8287059,50.5555294 36.3739608,50.5555294 35.9932549,50.7556078 C32.2684706,52.7129412 12.6945882,62.9992157 12.6945882,62.9992157 L12.6945882,0.000392156863 L60.5080784,0.000392156863 L60.5080784,0.000392156863 Z" id="Path" fill="#0485FA"></path>
            </g>
            <g id="Group" transform="translate(0.000000, 0.000000)">
                <polygon id="Path" fill="url(#linearGradient-1)" points="4.21449368e-15 86.3068235 4.21449368e-15 28.7689412 49.8292549 0 99.6585098 28.7689412 99.6585098 86.3068235 49.8292549 115.075765"></polygon>
                <path d="M4.21449368e-15,86.3068235 L4.21449368e-15,28.7689412 L49.8292549,0 L99.6585098,28.7689412 L99.6585098,86.3068235 L49.8292549,115.075765 L4.21449368e-15,86.3068235 Z M9.13984314,81.0299608 L9.13984314,34.0458824 C9.13984314,34.0458824 49.8292549,10.5538039 49.8292549,10.5538039 C59.3127843,16.029098 81.0351373,28.5705098 90.5186667,34.0458824 C90.5186667,34.0458824 90.5186667,81.0299608 90.5186667,81.0299608 C90.5186667,81.0299608 49.8292549,104.521961 49.8292549,104.521961 L9.13984314,81.0299608 Z" id="Shape" fill="url(#linearGradient-2)"></path>
                <path d="M17.3152966,62.375 L17.3152966,58.3671875 L19.3699841,58.3671875 C20.7189424,58.3671875 21.774932,58.0455729 22.5379528,57.4023438 C23.3009737,56.7591146 23.6824841,55.8802083 23.6824841,54.765625 C23.6824841,54.03125 23.5080049,53.3763021 23.1590466,52.8007812 C22.8100882,52.2252604 22.3113903,51.78125 21.6629528,51.46875 C21.0145153,51.15625 20.2632132,51 19.4090466,51 L19.4090466,51 L14.9715466,51 L14.9715466,62.375 L17.3152966,62.375 Z M19.4090466,56.46875 L17.3152966,56.46875 L17.3152966,52.8984375 L19.4637341,52.8984375 C20.0418591,52.9088542 20.4949841,53.0859375 20.8231091,53.4296875 C21.1512341,53.7734375 21.3152966,54.2239583 21.3152966,54.78125 C21.3152966,55.3229167 21.1525362,55.7395833 20.8270153,56.03125 C20.5014945,56.3229167 20.0288382,56.46875 19.4090466,56.46875 L19.4090466,56.46875 Z M27.6356091,62.375 L27.6356091,58.2109375 L29.5027966,58.2109375 L31.6356091,62.375 L34.1512341,62.375 L34.1512341,62.265625 L31.6902966,57.6171875 C32.3725882,57.3098958 32.8817028,56.8971354 33.2176403,56.3789062 C33.5535778,55.8606771 33.7215466,55.2135417 33.7215466,54.4375 C33.7215466,53.34375 33.3569632,52.4973958 32.6277966,51.8984375 C31.8986299,51.2994792 30.8621716,51 29.5184216,51 L29.5184216,51 L25.2918591,51 L25.2918591,62.375 L27.6356091,62.375 Z M29.5262341,56.3125 L27.6356091,56.3125 L27.6356091,52.8984375 L29.5184216,52.8984375 C30.1486299,52.8984375 30.6160778,53.0520833 30.9207653,53.359375 C31.2254528,53.6666667 31.3777966,54.0885417 31.3777966,54.625 C31.3777966,55.1510417 31.2163382,55.5638021 30.8934216,55.8632812 C30.5705049,56.1627604 30.1147757,56.3125 29.5262341,56.3125 L29.5262341,56.3125 Z M43.1277966,62.375 L43.1277966,60.4921875 L37.8465466,60.4921875 L37.8465466,57.4453125 L42.3465466,57.4453125 L42.3465466,55.609375 L37.8465466,55.609375 L37.8465466,52.8984375 L43.1121716,52.8984375 L43.1121716,51 L35.5027966,51 L35.5027966,62.375 L43.1277966,62.375 Z M46.8465466,62.375 L46.8465466,59.265625 L46.6121716,53.90625 L49.6746716,62.375 L51.2840466,62.375 L54.3543591,53.8984375 L54.1199841,59.265625 L54.1199841,62.375 L56.4715466,62.375 L56.4715466,51 L53.3934216,51 L50.4871716,59.25 L47.5652966,51 L44.5027966,51 L44.5027966,62.375 L46.8465466,62.375 Z M61.0106091,62.375 L61.0106091,51 L58.6668591,51 L58.6668591,62.375 L61.0106091,62.375 Z M67.4324841,62.53125 C68.7814424,62.53125 69.8452445,62.1692708 70.6238903,61.4453125 C71.4025362,60.7213542 71.7918591,59.7369792 71.7918591,58.4921875 L71.7918591,58.4921875 L71.7918591,51 L69.4402966,51 L69.4402966,58.5703125 C69.4194632,59.9557292 68.7501924,60.6484375 67.4324841,60.6484375 C66.8022757,60.6484375 66.3087862,60.4778646 65.9520153,60.1367188 C65.5952445,59.7955729 65.4168591,59.2526042 65.4168591,58.5078125 L65.4168591,58.5078125 L65.4168591,51 L63.0731091,51 L63.0731091,58.578125 C63.0887341,59.8072917 63.4871716,60.7734375 64.2684216,61.4765625 C65.0496716,62.1796875 66.1043591,62.53125 67.4324841,62.53125 Z M76.0574841,62.375 L76.0574841,59.265625 L75.8231091,53.90625 L78.8856091,62.375 L80.4949841,62.375 L83.5652966,53.8984375 L83.3309216,59.265625 L83.3309216,62.375 L85.6824841,62.375 L85.6824841,51 L82.6043591,51 L79.6981091,59.25 L76.7762341,51 L73.7137341,51 L73.7137341,62.375 L76.0574841,62.375 Z" id="PREMIUM" fill="#36A1FF" fill-rule="nonzero"></path>
            </g>
        </g>
    </g>
</svg>