<?xml version="1.0" encoding="UTF-8"?>
<svg width="48px" height="76px" viewBox="0 0 48 76" version="1.1" xmlns="http://www.w3.org/2000/svg" xmlns:xlink="http://www.w3.org/1999/xlink">
    <title>ultimate_min</title>
    <defs>
        <linearGradient x1="28.0703123%" y1="85.8273083%" x2="70.4340505%" y2="12.3003021%" id="linearGradient-1">
            <stop stop-color="#FFE195" offset="0%"></stop>
            <stop stop-color="#FFE5A3" offset="25%"></stop>
            <stop stop-color="#FFF3CE" offset="49%"></stop>
            <stop stop-color="#FFF1BA" offset="71%"></stop>
            <stop stop-color="#FFF0B5" offset="100%"></stop>
        </linearGradient>
        <linearGradient x1="71.650499%" y1="93.3006456%" x2="28.3492059%" y2="6.69785499%" id="linearGradient-2">
            <stop stop-color="#F9B22B" offset="0%"></stop>
            <stop stop-color="#FEE792" offset="100%"></stop>
        </linearGradient>
    </defs>
    <g id="Page-1" stroke="none" stroke-width="1" fill="none" fill-rule="evenodd">
        <g id="ultimate_min">
            <g id="Group" transform="translate(6.371192, 41.989456)">
                <path d="M29.1433388,30.34303 C29.1433388,30.34303 32.6268932,32.1736564 34.3351253,33.071366 C34.5303141,33.1739279 34.7649032,33.1669394 34.9535945,33.0529313 C35.1422858,32.9389232 35.257616,32.7345171 35.257616,32.5140184 C35.257616,26.8478783 35.257616,0 35.257616,0 L29.1433388,0 L29.1433388,30.34303 L29.1433388,30.34303 Z" id="Path" fill="#FAA122"></path>
                <path d="M6.11427721,30.34303 C6.11427721,30.34303 2.63072277,32.1736564 0.922490668,33.071366 C0.727301918,33.1739279 0.492712768,33.1669394 0.304021495,33.0529313 C0.115330222,32.9389232 -2.14731873e-15,32.7345171 -2.14731873e-15,32.5140184 C-2.14731873e-15,26.8478783 -2.14731873e-15,0 -2.14731873e-15,0 L6.11427721,0 L6.11427721,30.34303 L6.11427721,30.34303 Z" id="Path" fill="#FAA122"></path>
                <path d="M29.1433388,0.000188880153 L29.1433388,30.3432188 C29.1433388,30.3432188 19.7156881,25.3889302 17.9217045,24.4461538 C17.7383396,24.3497872 17.5193142,24.3497872 17.3359115,24.4461538 C15.5419279,25.3889302 6.11427721,30.3432188 6.11427721,30.3432188 L6.11427721,0.000188880153 L29.1433388,0.000188880153 L29.1433388,0.000188880153 Z" id="Path" fill="#FED15F"></path>
            </g>
            <g id="Group">
                <polygon id="Path" fill="url(#linearGradient-1)" points="2.75125213e-15 41.5691974 2.75125213e-15 13.8563991 24.0000189 0 48 13.8563991 48 41.5691974 24.0000189 55.4255966"></polygon>
                <path d="M0,41.5691974 L0,13.8563991 L24.0000189,0 L48,13.8563991 L48,41.5691974 L24.0000189,55.4255966 L0,41.5691974 Z M4.40219195,39.0275883 L4.40219195,16.3979705 C4.40219195,16.3979705 24.0000189,5.08318046 24.0000189,5.08318046 C28.5677076,7.72032516 39.0301571,13.7608258 43.597808,16.3979705 C43.597808,21.6722977 43.597808,33.7532989 43.597808,39.0275883 C43.597808,39.0275883 24.0000189,50.3423783 24.0000189,50.3423783 L4.40219195,39.0275883 Z" id="Shape" fill="url(#linearGradient-2)"></path>
                <path d="M23.5662462,36 C25.4379715,36 26.914033,35.4977416 27.9944304,34.4932249 C29.074828,33.4887083 29.6150267,32.1228546 29.6150267,30.395664 L29.6150267,30.395664 L29.6150267,20 L26.352154,20 L26.352154,30.504065 C26.3232471,32.4263776 25.3946111,33.3875339 23.5662462,33.3875339 C22.6918108,33.3875339 22.0070773,33.1508582 21.5120456,32.6775068 C21.017014,32.2041554 20.7694982,31.4507679 20.7694982,30.4173442 L20.7694982,30.4173442 L20.7694982,20 L17.5174657,20 L17.5174657,30.5149051 C17.5391459,32.2204156 18.0919914,33.5609756 19.1760023,34.5365854 C20.2600131,35.5121951 21.7234278,36 23.5662462,36 Z" id="ULTIMATE-path" fill="#F49C27" fill-rule="nonzero"></path>
            </g>
        </g>
    </g>
</svg>