<?xml version="1.0" encoding="UTF-8"?>
<svg width="100px" height="156px" viewBox="0 0 100 156" version="1.1" xmlns="http://www.w3.org/2000/svg" xmlns:xlink="http://www.w3.org/1999/xlink">
    <title>ULTIMATE</title>
    <defs>
        <linearGradient x1="28.0703123%" y1="85.8273083%" x2="70.4340505%" y2="12.3003021%" id="linearGradient-1">
            <stop stop-color="#FFE195" offset="0%"></stop>
            <stop stop-color="#FFE5A3" offset="25%"></stop>
            <stop stop-color="#FFF3CE" offset="49%"></stop>
            <stop stop-color="#FFF1BA" offset="71%"></stop>
            <stop stop-color="#FFF0B5" offset="100%"></stop>
        </linearGradient>
        <linearGradient x1="71.650499%" y1="93.3006456%" x2="28.3492059%" y2="6.69785499%" id="linearGradient-2">
            <stop stop-color="#F9B22B" offset="0%"></stop>
            <stop stop-color="#FEE792" offset="100%"></stop>
        </linearGradient>
    </defs>
    <g id="Page-1" stroke="none" stroke-width="1" fill="none" fill-rule="evenodd">
        <g id="ULTIMATE">
            <g id="Group" transform="translate(13.228000, 87.179373)">
                <path d="M60.508,62.9988235 C60.508,62.9988235 67.7406275,66.7996078 71.2872941,68.663451 C71.692549,68.8763922 72.1796078,68.8618824 72.5713725,68.6251765 C72.9631373,68.3884706 73.2025882,67.9640784 73.2025882,67.5062745 C73.2025882,55.7421176 73.2025882,0 73.2025882,0 L60.508,0 L60.508,62.9988235 L60.508,62.9988235 Z" id="Path" fill="#FAA122"></path>
                <path d="M12.6945882,62.9988235 C12.6945882,62.9988235 5.46196078,66.7996078 1.91529412,68.663451 C1.51003922,68.8763922 1.02298039,68.8618824 0.631215686,68.6251765 C0.23945098,68.3884706 -4.45830736e-15,67.9640784 -4.45830736e-15,67.5062745 C-4.45830736e-15,55.7421176 -4.45830736e-15,0 -4.45830736e-15,0 L12.6945882,0 L12.6945882,62.9988235 L12.6945882,62.9988235 Z" id="Path" fill="#FAA122"></path>
                <path d="M60.508,0.000392156863 L60.508,62.9992157 C60.508,62.9992157 40.9341176,52.7130196 37.2094118,50.7556078 C36.8287059,50.5555294 36.3739608,50.5555294 35.9931765,50.7556078 C32.2684706,52.7130196 12.6945882,62.9992157 12.6945882,62.9992157 L12.6945882,0.000392156863 L60.508,0.000392156863 L60.508,0.000392156863 Z" id="Path" fill="#FED15F"></path>
            </g>
            <g id="Group">
                <polygon id="Path" fill="url(#linearGradient-1)" points="5.71220631e-15 86.3068235 5.71220631e-15 28.7689412 49.8293333 0 99.6585882 28.7689412 99.6585882 86.3068235 49.8293333 115.075765"></polygon>
                <path d="M0,86.3068235 L0,28.7689412 L49.8293333,0 L99.6585882,28.7689412 L99.6585882,86.3068235 L49.8293333,115.075765 L0,86.3068235 Z M9.13992157,81.0298824 L9.13992157,34.0458039 C9.13992157,34.0458039 49.8293333,10.5538039 49.8293333,10.5538039 C59.3128627,16.029098 81.0352157,28.5705098 90.5186667,34.0458039 C90.5186667,44.9964706 90.5186667,70.0792941 90.5186667,81.0298824 C90.5186667,81.0298824 49.8293333,104.521882 49.8293333,104.521882 L9.13992157,81.0298824 Z" id="Shape" fill="url(#linearGradient-2)"></path>
                <path d="M17.8768407,62.53125 C19.225799,62.53125 20.2896011,62.1692708 21.0682469,61.4453125 C21.8468928,60.7213542 22.2362157,59.7369792 22.2362157,58.4921875 L22.2362157,58.4921875 L22.2362157,51 L19.8846532,51 L19.8846532,58.5703125 C19.8638199,59.9557292 19.194549,60.6484375 17.8768407,60.6484375 C17.2466324,60.6484375 16.7531428,60.4778646 16.3963719,60.1367188 C16.0396011,59.7955729 15.8612157,59.2526042 15.8612157,58.5078125 L15.8612157,58.5078125 L15.8612157,51 L13.5174657,51 L13.5174657,58.578125 C13.5330907,59.8072917 13.9315282,60.7734375 14.7127782,61.4765625 C15.4940282,62.1796875 16.5487157,62.53125 17.8768407,62.53125 Z M31.4784032,62.375 L31.4784032,60.4921875 L26.5018407,60.4921875 L26.5018407,51 L24.1580907,51 L24.1580907,62.375 L31.4784032,62.375 Z M36.2362157,62.375 L36.2362157,52.8984375 L39.7205907,52.8984375 L39.7205907,51 L30.4549657,51 L30.4549657,52.8984375 L33.8924657,52.8984375 L33.8924657,62.375 L36.2362157,62.375 Z M43.5487157,62.375 L43.5487157,51 L41.2049657,51 L41.2049657,62.375 L43.5487157,62.375 Z M48.0643407,62.375 L48.0643407,59.265625 L47.8299657,53.90625 L50.8924657,62.375 L52.5018407,62.375 L55.5721532,53.8984375 L55.3377782,59.265625 L55.3377782,62.375 L57.6893407,62.375 L57.6893407,51 L54.6112157,51 L51.7049657,59.25 L48.7830907,51 L45.7205907,51 L45.7205907,62.375 L48.0643407,62.375 Z M61.3065282,62.375 L62.0877782,60.03125 L66.1971532,60.03125 L66.9862157,62.375 L69.4784032,62.375 L65.2205907,51 L63.0487157,51 L58.8143407,62.375 L61.3065282,62.375 Z M65.5643407,58.1328125 L62.7205907,58.1328125 L64.1346532,53.875 L65.5643407,58.1328125 Z M74.6268407,62.375 L74.6268407,52.8984375 L78.1112157,52.8984375 L78.1112157,51 L68.8455907,51 L68.8455907,52.8984375 L72.2830907,52.8984375 L72.2830907,62.375 L74.6268407,62.375 Z M87.0721532,62.375 L87.0721532,60.4921875 L81.7909032,60.4921875 L81.7909032,57.4453125 L86.2909032,57.4453125 L86.2909032,55.609375 L81.7909032,55.609375 L81.7909032,52.8984375 L87.0565282,52.8984375 L87.0565282,51 L79.4471532,51 L79.4471532,62.375 L87.0721532,62.375 Z" id="ULTIMATE" fill="#F49C27" fill-rule="nonzero"></path>
            </g>
        </g>
    </g>
</svg>