<?xml version="1.0" encoding="UTF-8"?>
<svg width="100px" height="157px" viewBox="0 0 100 157" version="1.1" xmlns="http://www.w3.org/2000/svg" xmlns:xlink="http://www.w3.org/1999/xlink">
    <title>VIP</title>
    <defs>
        <linearGradient x1="40.7766153%" y1="13.2861288%" x2="50%" y2="106.48295%" id="linearGradient-1">
            <stop stop-color="#81FF98" offset="0%"></stop>
            <stop stop-color="#01792C" offset="100%"></stop>
        </linearGradient>
        <linearGradient x1="-7.73503231%" y1="50.0000343%" x2="107.734731%" y2="50.0000343%" id="linearGradient-2">
            <stop stop-color="#70DF8A" offset="0%"></stop>
            <stop stop-color="#1CCB43" offset="100%"></stop>
        </linearGradient>
    </defs>
    <g id="Page-1" stroke="none" stroke-width="1" fill="none" fill-rule="evenodd">
        <g id="VIP">
            <g id="Group" transform="translate(13.007893, 87.362036)">
                <path d="M60.8900552,63.3970008 C60.8900552,63.3970008 68.1683504,67.2217837 71.7374901,69.0973954 C72.1452249,69.3116811 72.6353591,69.2970797 73.0295975,69.0588792 C73.4239148,68.8206788 73.6647987,68.3936069 73.6647987,67.9329913 C73.6647987,56.0944751 73.6647987,0.000394632991 73.6647987,0.000394632991 L60.8900552,0.000394632991 L60.8900552,63.3970008 L60.8900552,63.3970008 Z" id="Path" fill="#0E7135"></path>
                <path d="M12.7747435,63.3970008 C12.7747435,63.3970008 5.49652723,67.2217837 1.92738753,69.0973954 C1.51965272,69.3116811 1.02951855,69.2970797 0.635201263,69.0588792 C0.240962904,68.8206788 -4.48645768e-15,68.3936069 -4.48645768e-15,67.9329913 C-4.48645768e-15,56.0944751 -4.48645768e-15,0.000394632991 -4.48645768e-15,0.000394632991 L12.7747435,0.000394632991 L12.7747435,63.3970008 L12.7747435,63.3970008 Z" id="Path" fill="#0E7135"></path>
                <path d="M60.8900552,0 L60.8900552,63.3966062 C60.8900552,63.3966062 41.1926598,53.0454617 37.4443567,51.0756906 C37.061247,50.8743489 36.6036306,50.8743489 36.2205209,51.0756906 C32.4722178,53.0454617 12.7747435,63.3966062 12.7747435,63.3966062 L12.7747435,0 L60.8900552,0 Z" id="Path" fill="#09A449"></path>
            </g>
            <g>
                <polygon id="Path" fill="url(#linearGradient-1)" points="49.8403315 -1.94530001e-15 99.680663 28.775296 99.680663 86.3259669 49.8403315 115.101263 0 86.3259669 0 28.775296"></polygon>
                <path d="M49.8403315,-1.94530001e-15 L99.680663,28.775296 L99.680663,86.3259669 L49.8403315,115.101263 L0,86.3259669 L0,28.775296 L49.8403315,-1.94530001e-15 Z M49.8403315,10.620442 C59.3312549,16.1000789 80.9921073,28.6059984 90.4830308,34.0855564 C90.4830308,34.0855564 90.4830308,81.0157853 90.4830308,81.0157853 C90.4830308,81.0157853 49.8403315,104.480821 49.8403315,104.480821 C49.8403315,104.480821 9.19755328,81.0157853 9.19755328,81.0157853 C9.19755328,81.0157853 9.19755328,34.0855564 9.19755328,34.0855564 L49.8403315,10.620442 Z" id="Shape" fill="url(#linearGradient-2)"></path>
                <path d="M43.7480749,62.4101026 L47.7090124,51.0351026 L45.0996374,51.0351026 L42.5215124,59.5897901 L39.9590124,51.0351026 L37.3574499,51.0351026 L41.3027624,62.4101026 L43.7480749,62.4101026 Z M51.2715124,62.4101026 L51.2715124,51.0351026 L48.9277624,51.0351026 L48.9277624,62.4101026 L51.2715124,62.4101026 Z M55.7871374,62.4101026 L55.7871374,58.4022901 L57.8418249,58.4022901 C59.1907833,58.4022901 60.2467728,58.0806755 61.0097937,57.4374464 C61.7728145,56.7942172 62.1543249,55.9153109 62.1543249,54.8007276 C62.1543249,54.0663526 61.9798458,53.4114047 61.6308874,52.8358839 C61.2819291,52.260363 60.7832312,51.8163526 60.1347937,51.5038526 C59.4863562,51.1913526 58.7350541,51.0351026 57.8808874,51.0351026 L57.8808874,51.0351026 L53.4433874,51.0351026 L53.4433874,62.4101026 L55.7871374,62.4101026 Z M57.8808874,56.5038526 L55.7871374,56.5038526 L55.7871374,52.9335401 L57.9355749,52.9335401 C58.5136999,52.9439568 58.9668249,53.1210401 59.2949499,53.4647901 C59.6230749,53.8085401 59.7871374,54.2590609 59.7871374,54.8163526 C59.7871374,55.3580193 59.624377,55.7746859 59.2988562,56.0663526 C58.9733353,56.3580193 58.5006791,56.5038526 57.8808874,56.5038526 L57.8808874,56.5038526 Z" fill="#004B1D" fill-rule="nonzero"></path>
            </g>
        </g>
    </g>
</svg>